<?xml version="1.0" encoding="UTF-8"?><svg id="a" xmlns="http://www.w3.org/2000/svg" xmlns:xlink="http://www.w3.org/1999/xlink" viewBox="0 0 512 512"><defs><filter id="c" x="56.423" y="52.983" width="420.24" height="420.24" filterUnits="userSpaceOnUse"><feOffset dx="8.562" dy="9.513"/><feGaussianBlur result="d" stdDeviation="6.659"/><feFlood flood-color="#424242" flood-opacity=".79"/><feComposite in2="d" operator="in"/><feComposite in="SourceGraphic"/></filter></defs><g id="b"><circle cx="256" cy="256" r="185.504" fill="#f3f4f5"/><g id="e" filter="url(#c)"><line x1="225.083" y1="138.702" x2="393.831" y2="138.702" fill="none" stroke="#231f20" stroke-linecap="round" stroke-miterlimit="10" stroke-width="22.831"/><line x1="271.697" y1="190.93" x2="91.296" y2="190.93" fill="none" stroke="#231f20" stroke-linecap="round" stroke-miterlimit="10" stroke-width="22.831"/><line x1="89.394" y1="242.317" x2="385.074" y2="242.317" fill="none" stroke="#231f20" stroke-linecap="round" stroke-miterlimit="10" stroke-width="22.831"/><path d="M392.512,136.297c-32.734-37.525-80.903-61.236-134.61-61.236-98.616,0-178.561,79.944-178.561,178.561,0,12.209,3.119,28.309,5.453,39.829h149.931" fill="none" stroke="#231f20" stroke-linecap="round" stroke-miterlimit="10" stroke-width="22.831"/><path d="M290.638,345.092H105.064c31.291,51.659,88.033,87.091,152.839,87.091,98.616,0,178.561-79.944,178.561-178.561,0-44.91-16.579-85.947-43.951-117.325" fill="none" stroke="#231f20" stroke-linecap="round" stroke-miterlimit="10" stroke-width="22.831"/><line x1="267.697" y1="293.45" x2="374.932" y2="293.45" fill="none" stroke="#231f20" stroke-linecap="round" stroke-miterlimit="10" stroke-width="22.831"/></g></g></svg>